<svg width="370" height="251" xmlns="http://www.w3.org/2000/svg" xmlns:xlink="http://www.w3.org/1999/xlink" xml:space="preserve" overflow="hidden"><defs><clipPath id="clip0"><rect x="696" y="174" width="370" height="251"/></clipPath><clipPath id="clip1"><rect x="697" y="175" width="369" height="250"/></clipPath><clipPath id="clip2"><rect x="697" y="175" width="369" height="250"/></clipPath></defs><g clip-path="url(#clip0)" transform="translate(-696 -174)"><g clip-path="url(#clip1)"><g clip-path="url(#clip2)"><path d="M189.381 192.977C149.251 229.575 108.471 265.969 68.9058 303.054L68.4994 303.461C65.6974 300.253 63.9909 296.027 63.9909 291.438L63.9909 94.4429C63.9909 89.8938 65.6974 85.6685 68.459 82.4595ZM241.167 240.299 197.827 200.697 78.7786 309.472C79.9576 309.716 81.1338 309.837 82.3534 309.837L399.988 309.837C401.207 309.837 402.424 309.716 403.562 309.472L284.555 200.697ZM413.873 82.4568 292.95 192.975 413.06 302.728C413.221 302.849 413.386 303.013 413.547 303.174L413.873 303.5C416.675 300.251 418.381 296.066 418.381 291.477L418.381 94.4822C418.341 89.8903 416.675 85.6671 413.873 82.4588ZM403.556 76.4034C402.377 76.1581 401.2 76.0375 399.981 76.0375L82.3465 76.0375C81.1269 76.0375 79.91 76.1581 78.7717 76.4034L241.162 224.82Z" fill="#2F5597" fill-rule="evenodd" fill-opacity="1" transform="matrix(1 0 0 1.00053 639.978 105.376)"/><path d="M13.5979-0.818256C12.9007-0.452194 12.1713-0.174959 11.4122 0.0107493 10.6505 0.196471 9.85649 0.290679 9.03286 0.290679 6.56196 0.290679 4.6078-0.398379 3.16512-1.77649 1.72781-3.15461 1.01181-5.02258 1.01181-7.38587 1.01181-9.75444 1.72781-11.6278 3.16512-13.006 4.60787-14.3841 6.56196-15.0731 9.03286-15.0731 9.85649-15.0731 10.6506-14.9789 11.4122-14.7932 12.1713-14.6048 12.9007-14.3329 13.5979-13.9749L13.5979-10.9065C12.8927-11.3856 12.1982-11.7382 11.5092-11.9616 10.8201-12.1903 10.0934-12.3061 9.33439-12.3061 7.97777-12.3061 6.90656-11.8674 6.126-10.9926 5.34275-10.1232 4.95246-8.92006 4.95246-7.3858 4.95246-5.85692 5.34275-4.65383 6.126-3.779 6.90656-2.90961 7.97784-2.47627 9.33439-2.47627 10.0935-2.47627 10.8201-2.58663 11.5092-2.81003 12.1982-3.03882 12.8927-3.39412 13.5979-3.87594Z" fill="#2F5597" fill-rule="nonzero" fill-opacity="1" transform="matrix(1 0 0 1.00053 688.212 552.414)"/><path d="M9.95895-8.0854C9.64136-8.22804 9.32908-8.33305 9.02224-8.39761 8.72078-8.46762 8.41126-8.50531 8.09629-8.50531 7.18384-8.50531 6.48128-8.20923 5.98605-7.62249 5.49617-7.04107 5.25393-6.20398 5.25393-5.11389L5.25393 0.000227389 1.70101 0.000227389 1.70101-11.0998 5.25393-11.0998 5.25393-9.2803C5.7115-10.0044 6.23638-10.5319 6.8258-10.863 7.41261-11.1995 8.12316-11.369 8.95761-11.369 9.07069-11.369 9.1972-11.3636 9.33446-11.3582 9.47709-11.3502 9.68167-11.3287 9.94813-11.2937Z" fill="#2F5597" fill-rule="nonzero" fill-opacity="1" transform="matrix(1 0 0 1.00053 703.115 552.414)"/><path d="M12.7903-5.57709 12.7903-4.57582 4.48921-4.57582C4.57534-3.74144 4.8768-3.11426 5.3936-2.69167 5.91039-2.27446 6.63177-2.06721 7.55765-2.06721 8.30321-2.06721 9.06765-2.17757 9.85091-2.40097 10.6315-2.62169 11.4363-2.96083 12.2626-3.41306L12.2626-0.678329C11.4228-0.355333 10.583-0.113088 9.74327 0.0430454 8.90345 0.207234 8.0637 0.290679 7.22394 0.290679 5.21327 0.290679 3.65214-0.218038 2.54049-1.2382 1.42614-2.26373 0.871658-3.69834 0.871658-5.54481 0.871658-7.35362 1.41537-8.7748 2.50817-9.80839 3.60639-10.8474 5.11363-11.3695 7.03011-11.3695 8.77425-11.3695 10.1686-10.8419 11.2183-9.78675 12.2653-8.73711 12.7901-7.33474 12.7901-5.57706ZM9.14042-6.76145C9.14042-7.43438 8.94121-7.97805 8.54824-8.38721 8.15259-8.80175 7.63848-9.01163 7.00861-9.01163 6.31957-9.01163 5.75971-8.81787 5.32905-8.43027 4.90377-8.04268 4.63999-7.48551 4.53236-6.76145Z" fill="#2F5597" fill-rule="nonzero" fill-opacity="1" transform="matrix(1 0 0 1.00053 713.131 552.414)"/><path d="M6.68599-4.99567C5.94581-4.99567 5.38595-4.86916 5.00642-4.61884 4.63228-4.36582 4.44656-3.99707 4.44656-3.50987 4.44656-3.05767 4.59729-2.70236 4.89875-2.44396 5.20021-2.19095 5.62013-2.06713 6.15842-2.06713 6.82594-2.06713 7.38573-2.30669 7.83803-2.78851 8.29556-3.26761 8.52709-3.86785 8.52709-4.58653L8.52709-4.99566ZM12.1016-6.33072 12.1016 0 8.52709 0 8.52709-1.64726C8.05336-0.971661 7.51776-0.479102 6.92289-0.172264 6.32535 0.13458 5.60128 0.2907 4.74809 0.2907 3.59874 0.2907 2.66479-0.0430661 1.94879-0.71057 1.23011-1.38348 0.87214-2.25557 0.87214-3.32685 0.87214-4.63227 1.31895-5.58779 2.21794-6.19071 3.11426-6.79902 4.52201-7.10584 6.43842-7.10584L8.52709-7.10584 8.52709-7.3858C8.52709-7.94566 8.3037-8.35475 7.85953-8.61315 7.42081-8.87692 6.73178-9.0115 5.79239-9.0115 5.03064-9.0115 4.32277-8.93611 3.6714-8.78542 3.01733-8.63465 2.40636-8.4032 1.84113-8.09636L1.84113-10.8095C2.60019-10.9952 3.36456-11.1352 4.13438-11.2294 4.90151-11.3209 5.66864-11.3694 6.43845-11.3694 8.44096-11.3694 9.88377-10.9737 10.7665-10.185 11.6549-9.39371 12.1016-8.10979 12.1016-6.33056Z" fill="#2F5597" fill-rule="nonzero" fill-opacity="1" transform="matrix(1 0 0 1.00053 726.906 552.414)"/><path d="M5.57709-14.2552 5.57709-11.1006 9.23771-11.1006 9.23771-8.5705 5.57709-8.5705 5.57709-3.85473C5.57709-3.33793 5.67938-2.98803 5.88932-2.81039 6.09657-2.63005 6.50301-2.54123 7.10591-2.54123L8.93618-2.54123 8.93618-0.000330748 5.88925-0.000330748C4.48964-0.000330748 3.49367-0.29103 2.90694-0.872402 2.32555-1.45918 2.03487-2.4551 2.03487-3.85471L2.03487-8.5705 0.26916-8.5705 0.26916-11.1006 2.03487-11.1006 2.03487-14.2552Z" fill="#2F5597" fill-rule="nonzero" fill-opacity="1" transform="matrix(1 0 0 1.00053 740.61 552.414)"/><path d="M12.7903-5.57709 12.7903-4.57582 4.48921-4.57582C4.57534-3.74144 4.8768-3.11426 5.3936-2.69167 5.91039-2.27446 6.63177-2.06721 7.55765-2.06721 8.30321-2.06721 9.06765-2.17757 9.85091-2.40097 10.6315-2.62169 11.4363-2.96083 12.2626-3.41306L12.2626-0.678329C11.4228-0.355333 10.583-0.113088 9.74327 0.0430454 8.90345 0.207234 8.0637 0.290679 7.22394 0.290679 5.21327 0.290679 3.65214-0.218038 2.54049-1.2382 1.42614-2.26373 0.871658-3.69834 0.871658-5.54481 0.871658-7.35362 1.41537-8.7748 2.50817-9.80839 3.60639-10.8474 5.11363-11.3695 7.03011-11.3695 8.77425-11.3695 10.1686-10.8419 11.2183-9.78675 12.2653-8.73711 12.7901-7.33474 12.7901-5.57706ZM9.14042-6.76145C9.14042-7.43438 8.94121-7.97805 8.54824-8.38721 8.15259-8.80175 7.63848-9.01163 7.00861-9.01163 6.31957-9.01163 5.75971-8.81787 5.32905-8.43027 4.90377-8.04268 4.63999-7.48551 4.53236-6.76145Z" fill="#2F5597" fill-rule="nonzero" fill-opacity="1" transform="matrix(1 0 0 1.00053 750.319 552.414)"/><path d="M9.25956-9.47454 9.25956-15.4284 12.834-15.4284 12.834 0.000275623 9.25956 0.000275623 9.25956-1.60392C8.7697-0.949852 8.23134-0.468077 7.64454-0.161171 7.05505 0.140292 6.37406 0.291023 5.59887 0.291023 4.23419 0.291023 3.11178-0.249997 2.22896-1.33474 1.35152-2.42483 0.915482-3.8272 0.915482-5.54447 0.915482-7.25102 1.35152-8.64795 2.22896-9.73259 3.11178-10.8227 4.23426-11.3691 5.59887-11.3691 6.366-11.3691 7.0443-11.213 7.63372-10.9062 8.22859-10.6047 8.76957-10.1256 9.25949-9.47427ZM6.92324-2.29318C7.6823-2.29318 8.26097-2.56773 8.65663-3.12219 9.05766-3.67397 9.25956-4.48149 9.25956-5.54464 9.25956-6.59972 9.05766-7.40186 8.65663-7.95634 8.26097-8.5162 7.68223-8.79616 6.92324-8.79616 6.16955-8.79616 5.59088-8.51627 5.18984-7.95634 4.7861-7.40186 4.58692-6.59972 4.58692-5.54464 4.58692-4.48142 4.7861-3.67399 5.18984-3.12219 5.5909-2.56771 6.16961-2.29318 6.92324-2.29318Z" fill="#2F5597" fill-rule="nonzero" fill-opacity="1" transform="matrix(1 0 0 1.00053 764.094 552.414)"/><path d="M7.61202-2.29325C8.37109-2.29325 8.95244-2.5678 9.35616-3.12226 9.75719-3.67404 9.95909-4.48156 9.95909-5.54471 9.95909-6.59979 9.75719-7.40193 9.35616-7.95641 8.95244-8.51627 8.37102-8.79623 7.61202-8.79623 6.85027-8.79623 6.26622-8.51634 5.85706-7.95641 5.45331-7.39655 5.25413-6.59173 5.25413-5.54471 5.25413-4.48962 5.45331-3.68212 5.85706-3.12226 6.26619-2.56778 6.85027-2.29325 7.61202-2.29325ZM5.25413-9.47461C5.74132-10.126 6.28234-10.6051 6.8799-10.9065 7.47476-11.2134 8.16113-11.3695 8.93632-11.3695 10.2983-11.3695 11.418-10.8231 12.2955-9.73301 13.1783-8.64829 13.6198-7.2513 13.6198-5.54483 13.6198-3.82756 13.1784-2.42526 12.2955-1.3351 11.418-0.25039 10.2983 0.290658 8.93632 0.290658 8.16113 0.290658 7.47476 0.134545 6.8799-0.172306 6.28235-0.47915 5.74137-0.958245 5.25413-1.60424L5.25413-4.13435e-05 1.70121-4.13435e-05 1.70121-15.4288 5.25413-15.4288Z" fill="#2F5597" fill-rule="nonzero" fill-opacity="1" transform="matrix(1 0 0 1.00053 785.7 552.414)"/><path d="M0.247634-11.1 3.80055-11.1 6.78286-3.57414 9.32378-11.1 12.8659-11.1 8.20406 1.05564C7.73033 2.28843 7.18122 3.14975 6.55678 3.6396 5.93232 4.13486 5.10597 4.38247 4.08045 4.38247L2.03477 4.38247 2.03477 2.05691 3.14374 2.05691C3.74667 2.05691 4.1827 1.96001 4.45722 1.76621 4.72908 1.57241 4.94171 1.22788 5.09245 0.73262L5.20012 0.431157Z" fill="#2F5597" fill-rule="nonzero" fill-opacity="1" transform="matrix(1 0 0 1.00053 800.24 552.414)"/><path d="M5.68473-11.9186 5.68473-2.88577 7.05209-2.88577C8.60785-2.88577 9.79757-3.26799 10.6158-4.03781 11.4395-4.813 11.854-5.93809 11.854-7.41846 11.854-8.88271 11.4448-9.99705 10.6266-10.7669 9.80839-11.534 8.61598-11.9189 7.05216-11.9189ZM1.86259-14.8041 5.88931-14.8041C8.13412-14.8041 9.80832-14.6425 10.9065-14.3196 12.0101-14.0019 12.9548-13.4609 13.7381-12.6938 14.4325-12.0263 14.9493-11.2538 15.2885-10.379 15.6249-9.50961 15.7945-8.52178 15.7945-7.41819 15.7945-6.29846 15.6249-5.29987 15.2885-4.42505 14.9493-3.5476 14.4325-2.77778 13.7381-2.11022 12.9468-1.34041 11.9966-0.796744 10.885-0.473713 9.77063-0.156099 8.10725 1.37812e-05 5.88931 1.37812e-05L1.86259 1.37812e-05Z" fill="#2F5597" fill-rule="nonzero" fill-opacity="1" transform="matrix(1 0 0 1.00053 820.549 552.414)"/><path d="M6.68599-4.99567C5.94581-4.99567 5.38595-4.86916 5.00642-4.61884 4.63228-4.36582 4.44656-3.99707 4.44656-3.50987 4.44656-3.05767 4.59729-2.70236 4.89875-2.44396 5.20021-2.19095 5.62013-2.06713 6.15842-2.06713 6.82594-2.06713 7.38573-2.30669 7.83803-2.78851 8.29556-3.26761 8.52709-3.86785 8.52709-4.58653L8.52709-4.99566ZM12.1016-6.33072 12.1016 0 8.52709 0 8.52709-1.64726C8.05336-0.971661 7.51776-0.479102 6.92289-0.172264 6.32535 0.13458 5.60128 0.2907 4.74809 0.2907 3.59874 0.2907 2.66479-0.0430661 1.94879-0.71057 1.23011-1.38348 0.87214-2.25557 0.87214-3.32685 0.87214-4.63227 1.31895-5.58779 2.21794-6.19071 3.11426-6.79902 4.52201-7.10584 6.43842-7.10584L8.52709-7.10584 8.52709-7.3858C8.52709-7.94566 8.3037-8.35475 7.85953-8.61315 7.42081-8.87692 6.73178-9.0115 5.79239-9.0115 5.03064-9.0115 4.32277-8.93611 3.6714-8.78542 3.01733-8.63465 2.40636-8.4032 1.84113-8.09636L1.84113-10.8095C2.60019-10.9952 3.36456-11.1352 4.13438-11.2294 4.90151-11.3209 5.66864-11.3694 6.43845-11.3694 8.44096-11.3694 9.88377-10.9737 10.7665-10.185 11.6549-9.39371 12.1016-8.10979 12.1016-6.33056Z" fill="#2F5597" fill-rule="nonzero" fill-opacity="1" transform="matrix(1 0 0 1.00053 837.406 552.414)"/><path d="M12.8661-6.76138 12.8661 0 9.30235 0 9.30235-5.17868C9.30235-6.13151 9.28085-6.79369 9.23778-7.15972 9.19472-7.52575 9.11933-7.78959 9.01163-7.95641 8.87437-8.19324 8.6833-8.37632 8.44102-8.50552 8.2042-8.63472 7.93498-8.69928 7.63352-8.69928 6.89333-8.69928 6.31191-8.41133 5.88938-7.83796 5.4641-7.26198 5.25415-6.47062 5.25415-5.4586L5.25415 4.8234e-05 1.70123 4.8234e-05 1.70123-11.1 5.25415-11.1 5.25415-9.4742C5.79248-10.1256 6.35775-10.6047 6.95528-10.9061 7.5582-11.213 8.22576-11.3691 8.95782-11.3691 10.2337-11.3691 11.2026-10.9734 11.8648-10.1848 12.5324-9.4015 12.8661-8.26022 12.8661-6.76097Z" fill="#2F5597" fill-rule="nonzero" fill-opacity="1" transform="matrix(1 0 0 1.00053 851.112 552.414)"/><path d="M6.68599-4.99567C5.94581-4.99567 5.38595-4.86916 5.00642-4.61884 4.63228-4.36582 4.44656-3.99707 4.44656-3.50987 4.44656-3.05767 4.59729-2.70236 4.89875-2.44396 5.20021-2.19095 5.62013-2.06713 6.15842-2.06713 6.82594-2.06713 7.38573-2.30669 7.83803-2.78851 8.29556-3.26761 8.52709-3.86785 8.52709-4.58653L8.52709-4.99566ZM12.1016-6.33072 12.1016 0 8.52709 0 8.52709-1.64726C8.05336-0.971661 7.51776-0.479102 6.92289-0.172264 6.32535 0.13458 5.60128 0.2907 4.74809 0.2907 3.59874 0.2907 2.66479-0.0430661 1.94879-0.71057 1.23011-1.38348 0.87214-2.25557 0.87214-3.32685 0.87214-4.63227 1.31895-5.58779 2.21794-6.19071 3.11426-6.79902 4.52201-7.10584 6.43842-7.10584L8.52709-7.10584 8.52709-7.3858C8.52709-7.94566 8.3037-8.35475 7.85953-8.61315 7.42081-8.87692 6.73178-9.0115 5.79239-9.0115 5.03064-9.0115 4.32277-8.93611 3.6714-8.78542 3.01733-8.63465 2.40636-8.4032 1.84113-8.09636L1.84113-10.8095C2.60019-10.9952 3.36456-11.1352 4.13438-11.2294 4.90151-11.3209 5.66864-11.3694 6.43845-11.3694 8.44096-11.3694 9.88377-10.9737 10.7665-10.185 11.6549-9.39371 12.1016-8.10979 12.1016-6.33056Z" fill="#2F5597" fill-rule="nonzero" fill-opacity="1" transform="matrix(1 0 0 1.00053 865.569 552.414)"/><path d="M12.8661-6.76138 12.8661 0 9.30235 0 9.30235-5.17868C9.30235-6.13151 9.28085-6.79369 9.23778-7.15972 9.19472-7.52575 9.11933-7.78959 9.01163-7.95641 8.87437-8.19324 8.6833-8.37632 8.44102-8.50552 8.2042-8.63472 7.93498-8.69928 7.63352-8.69928 6.89333-8.69928 6.31191-8.41133 5.88938-7.83796 5.4641-7.26198 5.25415-6.47062 5.25415-5.4586L5.25415 4.8234e-05 1.70123 4.8234e-05 1.70123-11.1 5.25415-11.1 5.25415-9.4742C5.79248-10.1256 6.35775-10.6047 6.95528-10.9061 7.5582-11.213 8.22576-11.3691 8.95782-11.3691 10.2337-11.3691 11.2026-10.9734 11.8648-10.1848 12.5324-9.4015 12.8661-8.26022 12.8661-6.76097Z" fill="#2F5597" fill-rule="nonzero" fill-opacity="1" transform="matrix(1 0 0 1.00053 879.274 552.414)"/><path d="M9.25956-1.88416C8.7697-1.23817 8.23134-0.759066 7.64454-0.452228 7.05505-0.150766 6.37406-3.44529e-05 5.59887-3.44529e-05 4.2477-3.44529e-05 3.12798-0.530285 2.23971-1.59348 1.35689-2.66207 0.915413-4.02668 0.915413-5.68476 0.915413-7.34287 1.35684-8.69935 2.23971-9.75444 3.12798-10.815 4.2477-11.348 5.59887-11.348 6.37406-11.348 7.05505-11.1972 7.64454-10.8957 8.23134-10.5943 8.76964-10.1152 9.25956-9.46379L9.25956-11.1003 12.834-11.1003 12.834-1.11999C12.834 0.667283 12.2688 2.02921 11.1437 2.97129 10.0159 3.91068 8.37942 4.38172 6.23418 4.38172 5.54512 4.38172 4.87219 4.32789 4.22082 4.22022 3.57483 4.11793 2.92346 3.95644 2.2721 3.73573L2.2721 0.968746C2.88848 1.32673 3.49407 1.5932 4.09162 1.76543 4.68647 1.94308 5.28673 2.03459 5.88965 2.03459 7.05244 2.03459 7.90301 1.77889 8.4413 1.27015 8.98504 0.758742 9.25956-0.035266 9.25956-1.12005ZM6.92324-8.7961C6.19111-8.7961 5.61513-8.52157 5.20059-7.97784 4.79147-7.43948 4.5869-6.67511 4.5869-5.68459 4.5869-4.66444 4.7834-3.88925 5.17907-3.35902 5.58012-2.83415 6.16153-2.57308 6.92324-2.57308 7.66074-2.57308 8.23672-2.84224 8.64588-3.38059 9.05497-3.92429 9.25956-4.69407 9.25956-5.68466 9.25956-6.67525 9.05497-7.43962 8.64588-7.97791 8.23672-8.52164 7.66074-8.79616 6.92324-8.79616Z" fill="#2F5597" fill-rule="nonzero" fill-opacity="1" transform="matrix(1 0 0 1.00053 893.731 552.414)"/><path d="M12.7903-5.57709 12.7903-4.57582 4.48921-4.57582C4.57534-3.74144 4.8768-3.11426 5.3936-2.69167 5.91039-2.27446 6.63177-2.06721 7.55765-2.06721 8.30321-2.06721 9.06765-2.17757 9.85091-2.40097 10.6315-2.62169 11.4363-2.96083 12.2626-3.41306L12.2626-0.678329C11.4228-0.355333 10.583-0.113088 9.74327 0.0430454 8.90345 0.207234 8.0637 0.290679 7.22394 0.290679 5.21327 0.290679 3.65214-0.218038 2.54049-1.2382 1.42614-2.26373 0.871658-3.69834 0.871658-5.54481 0.871658-7.35362 1.41537-8.7748 2.50817-9.80839 3.60639-10.8474 5.11363-11.3695 7.03011-11.3695 8.77425-11.3695 10.1686-10.8419 11.2183-9.78675 12.2653-8.73711 12.7901-7.33474 12.7901-5.57706ZM9.14042-6.76145C9.14042-7.43438 8.94121-7.97805 8.54824-8.38721 8.15259-8.80175 7.63848-9.01163 7.00861-9.01163 6.31957-9.01163 5.75971-8.81787 5.32905-8.43027 4.90377-8.04268 4.63999-7.48551 4.53236-6.76145Z" fill="#2F5597" fill-rule="nonzero" fill-opacity="1" transform="matrix(1 0 0 1.00053 915.34 552.414)"/><path d="M12.8661-6.76138 12.8661 0 9.30235 0 9.30235-5.17868C9.30235-6.13151 9.28085-6.79369 9.23778-7.15972 9.19472-7.52575 9.11933-7.78959 9.01163-7.95641 8.87437-8.19324 8.6833-8.37632 8.44102-8.50552 8.2042-8.63472 7.93498-8.69928 7.63352-8.69928 6.89333-8.69928 6.31191-8.41133 5.88938-7.83796 5.4641-7.26198 5.25415-6.47062 5.25415-5.4586L5.25415 4.8234e-05 1.70123 4.8234e-05 1.70123-11.1 5.25415-11.1 5.25415-9.4742C5.79248-10.1256 6.35775-10.6047 6.95528-10.9061 7.5582-11.213 8.22576-11.3691 8.95782-11.3691 10.2337-11.3691 11.2026-10.9734 11.8648-10.1848 12.5324-9.4015 12.8661-8.26022 12.8661-6.76097Z" fill="#2F5597" fill-rule="nonzero" fill-opacity="1" transform="matrix(1 0 0 1.00053 929.115 552.414)"/><path d="M9.25956-9.47454 9.25956-15.4284 12.834-15.4284 12.834 0.000275623 9.25956 0.000275623 9.25956-1.60392C8.7697-0.949852 8.23134-0.468077 7.64454-0.161171 7.05505 0.140292 6.37406 0.291023 5.59887 0.291023 4.23419 0.291023 3.11178-0.249997 2.22896-1.33474 1.35152-2.42483 0.915482-3.8272 0.915482-5.54447 0.915482-7.25102 1.35152-8.64795 2.22896-9.73259 3.11178-10.8227 4.23426-11.3691 5.59887-11.3691 6.366-11.3691 7.0443-11.213 7.63372-10.9062 8.22859-10.6047 8.76957-10.1256 9.25949-9.47427ZM6.92324-2.29318C7.6823-2.29318 8.26097-2.56773 8.65663-3.12219 9.05766-3.67397 9.25956-4.48149 9.25956-5.54464 9.25956-6.59972 9.05766-7.40186 8.65663-7.95634 8.26097-8.5162 7.68223-8.79616 6.92324-8.79616 6.16955-8.79616 5.59088-8.51627 5.18984-7.95634 4.7861-7.40186 4.58692-6.59972 4.58692-5.54464 4.58692-4.48142 4.7861-3.67399 5.18984-3.12219 5.5909-2.56771 6.16961-2.29318 6.92324-2.29318Z" fill="#2F5597" fill-rule="nonzero" fill-opacity="1" transform="matrix(1 0 0 1.00053 943.572 552.414)"/><path d="M6.68599-4.99567C5.94581-4.99567 5.38595-4.86916 5.00642-4.61884 4.63228-4.36582 4.44656-3.99707 4.44656-3.50987 4.44656-3.05767 4.59729-2.70236 4.89875-2.44396 5.20021-2.19095 5.62013-2.06713 6.15842-2.06713 6.82594-2.06713 7.38573-2.30669 7.83803-2.78851 8.29556-3.26761 8.52709-3.86785 8.52709-4.58653L8.52709-4.99566ZM12.1016-6.33072 12.1016 0 8.52709 0 8.52709-1.64726C8.05336-0.971661 7.51776-0.479102 6.92289-0.172264 6.32535 0.13458 5.60128 0.2907 4.74809 0.2907 3.59874 0.2907 2.66479-0.0430661 1.94879-0.71057 1.23011-1.38348 0.87214-2.25557 0.87214-3.32685 0.87214-4.63227 1.31895-5.58779 2.21794-6.19071 3.11426-6.79902 4.52201-7.10584 6.43842-7.10584L8.52709-7.10584 8.52709-7.3858C8.52709-7.94566 8.3037-8.35475 7.85953-8.61315 7.42081-8.87692 6.73178-9.0115 5.79239-9.0115 5.03064-9.0115 4.32277-8.93611 3.6714-8.78542 3.01733-8.63465 2.40636-8.4032 1.84113-8.09636L1.84113-10.8095C2.60019-10.9952 3.36456-11.1352 4.13438-11.2294 4.90151-11.3209 5.66864-11.3694 6.43845-11.3694 8.44096-11.3694 9.88377-10.9737 10.7665-10.185 11.6549-9.39371 12.1016-8.10979 12.1016-6.33056Z" fill="#2F5597" fill-rule="nonzero" fill-opacity="1" transform="matrix(1 0 0 1.00053 958.109 552.414)"/><path d="M9.95895-8.0854C9.64136-8.22804 9.32908-8.33305 9.02224-8.39761 8.72078-8.46762 8.41126-8.50531 8.09629-8.50531 7.18384-8.50531 6.48128-8.20923 5.98605-7.62249 5.49617-7.04107 5.25393-6.20398 5.25393-5.11389L5.25393 0.000227389 1.70101 0.000227389 1.70101-11.0998 5.25393-11.0998 5.25393-9.2803C5.7115-10.0044 6.23638-10.5319 6.8258-10.863 7.41261-11.1995 8.12316-11.369 8.95761-11.369 9.07069-11.369 9.1972-11.3636 9.33446-11.3582 9.47709-11.3502 9.68167-11.3287 9.94813-11.2937Z" fill="#2F5597" fill-rule="nonzero" fill-opacity="1" transform="matrix(1 0 0 1.00053 971.815 552.414)"/><path d="M9.0115-15.4287 9.0115-13.1031 7.05195-13.1031C6.54862-13.1031 6.19601-13.0089 5.99687-12.8232 5.80307-12.6428 5.70617-12.3279 5.70617-11.8758L5.70617-11.1006 8.73153-11.1006 8.73153-8.57036 5.70617-8.57036 5.70617 0.000103359 2.15325 0.000103359 2.15325-8.57036 0.38754-8.57036 0.38754-11.1006 2.15325-11.1006 2.15325-11.8758C2.15325-13.0869 2.4897-13.9806 3.16534-14.5566 3.83824-15.138 4.88261-15.4286 6.29841-15.4286Z" fill="#2F5597" fill-rule="nonzero" fill-opacity="1" transform="matrix(1 0 0 1.00053 688.212 572.733)"/><path d="M9.95895-8.0854C9.64136-8.22804 9.32908-8.33305 9.02224-8.39761 8.72078-8.46762 8.41126-8.50531 8.09629-8.50531 7.18384-8.50531 6.48128-8.20923 5.98605-7.62249 5.49617-7.04107 5.25393-6.20398 5.25393-5.11389L5.25393 0.000227389 1.70101 0.000227389 1.70101-11.0998 5.25393-11.0998 5.25393-9.2803C5.7115-10.0044 6.23638-10.5319 6.8258-10.863 7.41261-11.1995 8.12316-11.369 8.95761-11.369 9.07069-11.369 9.1972-11.3636 9.33446-11.3582 9.47709-11.3502 9.68167-11.3287 9.94813-11.2937Z" fill="#2F5597" fill-rule="nonzero" fill-opacity="1" transform="matrix(1 0 0 1.00053 697.048 572.733)"/><path d="M6.98773-8.83923C6.20448-8.83923 5.60424-8.55389 5.18971-7.98866 4.78058-7.42074 4.57602-6.60517 4.57602-5.54464 4.57602-4.48142 4.78059-3.66586 5.18971-3.10062 5.60422-2.53269 6.20448-2.25005 6.98773-2.25005 7.76292-2.25005 8.3551-2.53267 8.76419-3.10062 9.17329-3.66586 9.37787-4.48142 9.37787-5.54464 9.37787-6.60517 9.17329-7.42074 8.76419-7.98866 8.35503-8.55389 7.76292-8.83923 6.98773-8.83923ZM6.98773-11.3694C8.89608-11.3694 10.39-10.8526 11.4666-9.819 12.5433-8.79079 13.0816-7.36692 13.0816-5.54471 13.0816-3.71981 12.5433-2.29318 11.4666-1.2596 10.39-0.226011 8.89608 0.290782 6.98773 0.290782 5.07133 0.290782 3.56939-0.226011 2.48736-1.2596 1.41071-2.29318 0.872347-3.71974 0.872347-5.54471 0.872347-7.36692 1.41067-8.79079 2.48736-9.819 3.56939-10.8526 5.07133-11.3694 6.98773-11.3694Z" fill="#2F5597" fill-rule="nonzero" fill-opacity="1" transform="matrix(1 0 0 1.00053 707.064 572.733)"/><path d="M11.9937-9.25956C12.446-9.94861 12.9789-10.4708 13.5979-10.8314 14.2143-11.1894 14.8926-11.3698 15.6328-11.3698 16.9086-11.3698 17.883-10.9741 18.5505-10.1854 19.2181-9.40212 19.5518-8.2609 19.5518-6.76162L19.5518-0.00024117 15.9773-0.00024117 15.9773-5.7926C15.9827-5.87873 15.9881-5.96756 15.9881-6.06176 15.9934-6.15327 15.9989-6.28785 15.9989-6.46011 15.9989-7.24069 15.8831-7.80861 15.6544-8.16127 15.4228-8.51923 15.0514-8.69956 14.5346-8.69956 13.859-8.69956 13.3395-8.41966 12.9735-7.85974 12.6074-7.30525 12.4163-6.50315 12.4028-5.44806L12.4028-0.00023428 8.83909-0.00023428 8.83909-5.79259C8.83909-7.01991 8.73146-7.80861 8.51613-8.1612 8.30618-8.51923 7.92933-8.69956 7.38566-8.69956 6.70197-8.69956 6.17442-8.41959 5.80295-7.85974 5.43689-7.29988 5.25386-6.49774 5.25386-5.45878L5.25386-0.000130921 1.69012-0.000130921 1.69012-11.1002 5.25386-11.1002 5.25386-9.4744C5.6899-10.1042 6.19056-10.578 6.75042-10.8956 7.31566-11.2105 7.94015-11.3693 8.62383-11.3693 9.39096-11.3693 10.0693-11.1809 10.6587-10.8095 11.2455-10.4434 11.6923-9.92663 11.9937-9.25907Z" fill="#2F5597" fill-rule="nonzero" fill-opacity="1" transform="matrix(1 0 0 1.00053 721.014 572.733)"/><path d="M5.57709-14.2552 5.57709-11.1006 9.23771-11.1006 9.23771-8.5705 5.57709-8.5705 5.57709-3.85473C5.57709-3.33793 5.67938-2.98803 5.88932-2.81039 6.09657-2.63005 6.50301-2.54123 7.10591-2.54123L8.93618-2.54123 8.93618-0.000330748 5.88925-0.000330748C4.48964-0.000330748 3.49367-0.29103 2.90694-0.872402 2.32555-1.45918 2.03487-2.4551 2.03487-3.85471L2.03487-8.5705 0.26916-8.5705 0.26916-11.1006 2.03487-11.1006 2.03487-14.2552Z" fill="#2F5597" fill-rule="nonzero" fill-opacity="1" transform="matrix(1 0 0 1.00053 749.247 572.733)"/><path d="M12.8661-6.76138 12.8661 0 9.30235 0 9.30235-5.15718C9.30235-6.12614 9.28085-6.79369 9.23778-7.15972 9.19472-7.52575 9.11933-7.78959 9.01163-7.95641 8.87437-8.19324 8.6833-8.37632 8.44102-8.50552 8.2042-8.63472 7.93498-8.69928 7.63352-8.69928 6.89333-8.69928 6.31191-8.41133 5.88938-7.83796 5.4641-7.26198 5.25415-6.47062 5.25415-5.4586L5.25415 4.8234e-05 1.70123 4.8234e-05 1.70123-15.4286 5.25415-15.4286 5.25415-9.47475C5.79248-10.1261 6.35775-10.6052 6.95528-10.9067 7.5582-11.2135 8.22576-11.3697 8.95782-11.3697 10.2337-11.3697 11.2026-10.974 11.8648-10.1853 12.5324-9.40205 12.8661-8.26077 12.8661-6.76152Z" fill="#2F5597" fill-rule="nonzero" fill-opacity="1" transform="matrix(1 0 0 1.00053 758.956 572.733)"/><path d="M12.7903-5.57709 12.7903-4.57582 4.48921-4.57582C4.57534-3.74144 4.8768-3.11426 5.3936-2.69167 5.91039-2.27446 6.63177-2.06721 7.55765-2.06721 8.30321-2.06721 9.06765-2.17757 9.85091-2.40097 10.6315-2.62169 11.4363-2.96083 12.2626-3.41306L12.2626-0.678329C11.4228-0.355333 10.583-0.113088 9.74327 0.0430454 8.90345 0.207234 8.0637 0.290679 7.22394 0.290679 5.21327 0.290679 3.65214-0.218038 2.54049-1.2382 1.42614-2.26373 0.871658-3.69834 0.871658-5.54481 0.871658-7.35362 1.41537-8.7748 2.50817-9.80839 3.60639-10.8474 5.11363-11.3695 7.03011-11.3695 8.77425-11.3695 10.1686-10.8419 11.2183-9.78675 12.2653-8.73711 12.7901-7.33474 12.7901-5.57706ZM9.14042-6.76145C9.14042-7.43438 8.94121-7.97805 8.54824-8.38721 8.15259-8.80175 7.63848-9.01163 7.00861-9.01163 6.31957-9.01163 5.75971-8.81787 5.32905-8.43027 4.90377-8.04268 4.63999-7.48551 4.53236-6.76145Z" fill="#2F5597" fill-rule="nonzero" fill-opacity="1" transform="matrix(1 0 0 1.00053 773.415 572.733)"/><path d="M1.86259-14.8037 6.12614-14.8037 11.5094-4.65114 11.5094-14.8037 15.127-14.8037 15.127 0 10.8634 0 5.48014-10.1526 5.48014 0 1.86259 0Z" fill="#2F5597" fill-rule="nonzero" fill-opacity="1" transform="matrix(1 0 0 1.00053 794.259 572.733)"/><path d="M6.98773-8.83923C6.20448-8.83923 5.60424-8.55389 5.18971-7.98866 4.78058-7.42074 4.57602-6.60517 4.57602-5.54464 4.57602-4.48142 4.78059-3.66586 5.18971-3.10062 5.60422-2.53269 6.20448-2.25005 6.98773-2.25005 7.76292-2.25005 8.3551-2.53267 8.76419-3.10062 9.17329-3.66586 9.37787-4.48142 9.37787-5.54464 9.37787-6.60517 9.17329-7.42074 8.76419-7.98866 8.35503-8.55389 7.76292-8.83923 6.98773-8.83923ZM6.98773-11.3694C8.89608-11.3694 10.39-10.8526 11.4666-9.819 12.5433-8.79079 13.0816-7.36692 13.0816-5.54471 13.0816-3.71981 12.5433-2.29318 11.4666-1.2596 10.39-0.226011 8.89608 0.290782 6.98773 0.290782 5.07133 0.290782 3.56939-0.226011 2.48736-1.2596 1.41071-2.29318 0.872347-3.71974 0.872347-5.54471 0.872347-7.36692 1.41067-8.79079 2.48736-9.819 3.56939-10.8526 5.07133-11.3694 6.98773-11.3694Z" fill="#2F5597" fill-rule="nonzero" fill-opacity="1" transform="matrix(1 0 0 1.00053 811.257 572.733)"/><path d="M1.5827-4.32811 1.5827-11.1002 5.15718-11.1002 5.15718-9.99127C5.15718-9.38834 5.1518-8.62928 5.14641-7.71951 5.13834-6.81512 5.13565-6.2122 5.13565-5.91074 5.13565-5.01978 5.15718-4.37648 5.20025-3.98351 5.2487-3.58784 5.33214-3.29983 5.44788-3.12219 5.59054-2.89071 5.77626-2.71306 6.00774-2.58386 6.2446-2.46005 6.51646-2.40084 6.826-2.40084 7.56351-2.40084 8.14494-2.68346 8.57015-3.25141 8.99275-3.81665 9.2054-4.60802 9.2054-5.62004L9.2054-11.1002 12.7476-11.1002 12.7476-0.000158483 9.2054-0.000158483 9.2054-1.60435C8.66704-0.958362 8.09643-0.47926 7.4935-0.172423 6.89595 0.134421 6.23918 0.290541 5.52318 0.290541 4.23657 0.290541 3.2568-0.099748 2.58394-0.882993 1.91641-1.67162 1.58267-2.82097 1.58267-4.32828Z" fill="#2F5597" fill-rule="nonzero" fill-opacity="1" transform="matrix(1 0 0 1.00053 825.207 572.733)"/><path d="M12.8661-6.76138 12.8661 0 9.30235 0 9.30235-5.17868C9.30235-6.13151 9.28085-6.79369 9.23778-7.15972 9.19472-7.52575 9.11933-7.78959 9.01163-7.95641 8.87437-8.19324 8.6833-8.37632 8.44102-8.50552 8.2042-8.63472 7.93498-8.69928 7.63352-8.69928 6.89333-8.69928 6.31191-8.41133 5.88938-7.83796 5.4641-7.26198 5.25415-6.47062 5.25415-5.4586L5.25415 4.8234e-05 1.70123 4.8234e-05 1.70123-11.1 5.25415-11.1 5.25415-9.4742C5.79248-10.1256 6.35775-10.6047 6.95528-10.9061 7.5582-11.213 8.22576-11.3691 8.95782-11.3691 10.2337-11.3691 11.2026-10.9734 11.8648-10.1848 12.5324-9.4015 12.8661-8.26022 12.8661-6.76097Z" fill="#2F5597" fill-rule="nonzero" fill-opacity="1" transform="matrix(1 0 0 1.00053 839.667 572.733)"/><path d="M1.86259-14.8037 8.20406-14.8037C10.0828-14.8037 11.5255-14.3838 12.5322-13.544 13.5443-12.7097 14.0502-11.5199 14.0502-9.96956 14.0502-8.41918 13.5442-7.22408 12.5322-6.38433 11.5255-5.54995 10.0828-5.13541 8.20406-5.13541L5.68473-5.13541 5.68473 0.000206717 1.86259 0.000206717ZM5.68473-12.0367 5.68473-7.90239 7.79496-7.90239C8.53246-7.90239 9.10307-8.08003 9.50686-8.44075 9.90789-8.79871 10.1098-9.30745 10.1098-9.96956 10.1098-10.6371 9.90789-11.1458 9.50686-11.4985 9.10314-11.8565 8.53246-12.0368 7.79496-12.0368Z" fill="#2F5597" fill-rule="nonzero" fill-opacity="1" transform="matrix(1 0 0 1.00053 861.195 572.733)"/><path d="M9.95895-8.0854C9.64136-8.22804 9.32908-8.33305 9.02224-8.39761 8.72078-8.46762 8.41126-8.50531 8.09629-8.50531 7.18384-8.50531 6.48128-8.20923 5.98605-7.62249 5.49617-7.04107 5.25393-6.20398 5.25393-5.11389L5.25393 0.000227389 1.70101 0.000227389 1.70101-11.0998 5.25393-11.0998 5.25393-9.2803C5.7115-10.0044 6.23638-10.5319 6.8258-10.863 7.41261-11.1995 8.12316-11.369 8.95761-11.369 9.07069-11.369 9.1972-11.3636 9.33446-11.3582 9.47709-11.3502 9.68167-11.3287 9.94813-11.2937Z" fill="#2F5597" fill-rule="nonzero" fill-opacity="1" transform="matrix(1 0 0 1.00053 876.08 572.733)"/><path d="M6.98773-8.83923C6.20448-8.83923 5.60424-8.55389 5.18971-7.98866 4.78058-7.42074 4.57602-6.60517 4.57602-5.54464 4.57602-4.48142 4.78059-3.66586 5.18971-3.10062 5.60422-2.53269 6.20448-2.25005 6.98773-2.25005 7.76292-2.25005 8.3551-2.53267 8.76419-3.10062 9.17329-3.66586 9.37787-4.48142 9.37787-5.54464 9.37787-6.60517 9.17329-7.42074 8.76419-7.98866 8.35503-8.55389 7.76292-8.83923 6.98773-8.83923ZM6.98773-11.3694C8.89608-11.3694 10.39-10.8526 11.4666-9.819 12.5433-8.79079 13.0816-7.36692 13.0816-5.54471 13.0816-3.71981 12.5433-2.29318 11.4666-1.2596 10.39-0.226011 8.89608 0.290782 6.98773 0.290782 5.07133 0.290782 3.56939-0.226011 2.48736-1.2596 1.41071-2.29318 0.872347-3.71974 0.872347-5.54471 0.872347-7.36692 1.41067-8.79079 2.48736-9.819 3.56939-10.8526 5.07133-11.3694 6.98773-11.3694Z" fill="#2F5597" fill-rule="nonzero" fill-opacity="1" transform="matrix(1 0 0 1.00053 886.095 572.733)"/><path d="M1.70115-11.1 5.25406-11.1 5.25406-0.193625C5.25406 1.29212 4.89338 2.42534 4.17741 3.2086 3.46686 3.98916 2.43327 4.38213 1.07665 4.38213L-0.678308 4.38213-0.678308 2.05656-0.0646198 2.05656C0.608286 2.05656 1.07122 1.90045 1.32424 1.5936 1.57457 1.29213 1.70108 0.694584 1.70108-0.19368ZM1.70115-15.4281 5.25406-15.4281 5.25406-12.532 1.70115-12.532Z" fill="#2F5597" fill-rule="nonzero" fill-opacity="1" transform="matrix(1 0 0 1.00053 900.049 572.733)"/><path d="M12.7903-5.57709 12.7903-4.57582 4.48921-4.57582C4.57534-3.74144 4.8768-3.11426 5.3936-2.69167 5.91039-2.27446 6.63177-2.06721 7.55765-2.06721 8.30321-2.06721 9.06765-2.17757 9.85091-2.40097 10.6315-2.62169 11.4363-2.96083 12.2626-3.41306L12.2626-0.678329C11.4228-0.355333 10.583-0.113088 9.74327 0.0430454 8.90345 0.207234 8.0637 0.290679 7.22394 0.290679 5.21327 0.290679 3.65214-0.218038 2.54049-1.2382 1.42614-2.26373 0.871658-3.69834 0.871658-5.54481 0.871658-7.35362 1.41537-8.7748 2.50817-9.80839 3.60639-10.8474 5.11363-11.3695 7.03011-11.3695 8.77425-11.3695 10.1686-10.8419 11.2183-9.78675 12.2653-8.73711 12.7901-7.33474 12.7901-5.57706ZM9.14042-6.76145C9.14042-7.43438 8.94121-7.97805 8.54824-8.38721 8.15259-8.80175 7.63848-9.01163 7.00861-9.01163 6.31957-9.01163 5.75971-8.81787 5.32905-8.43027 4.90377-8.04268 4.63999-7.48551 4.53236-6.76145Z" fill="#2F5597" fill-rule="nonzero" fill-opacity="1" transform="matrix(1 0 0 1.00053 907.009 572.733)"/><path d="M10.6804-10.7555 10.6804-7.85932C10.1986-8.18773 9.71413-8.43262 9.22689-8.59145 8.73704-8.75565 8.231-8.83909 7.70883-8.83909 6.71831-8.83909 5.94581-8.54838 5.39401-7.96702 4.84761-7.38559 4.57576-6.57814 4.57576-5.54456 4.57576-4.50291 4.84761-3.69271 5.39401-3.11136 5.9458-2.53535 6.71831-2.25003 7.70883-2.25003 8.26869-2.25003 8.79623-2.33079 9.29153-2.49767 9.7922-2.66186 10.2551-2.9068 10.6804-3.22979L10.6804-0.322796C10.1205-0.120923 9.55261 0.0271144 8.97925 0.129398 8.41133 0.237063 7.84072 0.290899 7.26735 0.290899 5.26481 0.290899 3.69555-0.220512 2.5624-1.24873 1.43462-2.28232 0.872071-3.71425 0.872071-5.54459 0.872071-7.37491 1.43462-8.80147 2.5624-9.82968 3.69555-10.8552 5.26481-11.3693 7.26735-11.3693 7.84871-11.3693 8.42208-11.3182 8.99-11.2186 9.55523-11.1163 10.1205-10.9629 10.6803-10.7556Z" fill="#2F5597" fill-rule="nonzero" fill-opacity="1" transform="matrix(1 0 0 1.00053 920.785 572.733)"/><path d="M5.57709-14.2552 5.57709-11.1006 9.23771-11.1006 9.23771-8.5705 5.57709-8.5705 5.57709-3.85473C5.57709-3.33793 5.67938-2.98803 5.88932-2.81039 6.09657-2.63005 6.50301-2.54123 7.10591-2.54123L8.93618-2.54123 8.93618-0.000330748 5.88925-0.000330748C4.48964-0.000330748 3.49367-0.29103 2.90694-0.872402 2.32555-1.45918 2.03487-2.4551 2.03487-3.85471L2.03487-8.5705 0.26916-8.5705 0.26916-11.1006 2.03487-11.1006 2.03487-14.2552Z" fill="#2F5597" fill-rule="nonzero" fill-opacity="1" transform="matrix(1 0 0 1.00053 932.822 572.733)"/></g></g></g></svg>